<?xml version="1.0" encoding="UTF-8" standalone="no"?>
<!DOCTYPE svg PUBLIC "-//W3C//DTD SVG 1.1//EN"
 "http://www.w3.org/Graphics/SVG/1.1/DTD/svg11.dtd">
<!-- Generated by graphviz version 2.38.0 (20140413.2041)
 -->
<!-- Title: %3 Pages: 1 -->
<svg width="662pt" height="98pt"
 viewBox="0.00 0.00 661.58 98.00" xmlns="http://www.w3.org/2000/svg" xmlns:xlink="http://www.w3.org/1999/xlink">
<g id="graph0" class="graph" transform="scale(1 1) rotate(0) translate(4 94)">
<title>%3</title>
<polygon fill="white" stroke="none" points="-4,4 -4,-94 657.576,-94 657.576,4 -4,4"/>
<!-- The -->
<g id="node1" class="node"><title>The</title>
<ellipse fill="none" stroke="black" cx="27" cy="-72" rx="27" ry="18"/>
<text text-anchor="middle" x="27" y="-68.3" font-family="Times New Roman,serif" font-size="14.00">The</text>
</g>
<!-- pen -->
<g id="node2" class="node"><title>pen</title>
<ellipse fill="none" stroke="black" cx="120.547" cy="-72" rx="27" ry="18"/>
<text text-anchor="middle" x="120.547" y="-68.3" font-family="Times New Roman,serif" font-size="14.00">pen</text>
</g>
<!-- The&#45;&gt;pen -->
<g id="edge1" class="edge"><title>The&#45;&gt;pen</title>
<path fill="none" stroke="black" d="M54.4793,-72C63.4763,-72 73.6907,-72 83.3159,-72"/>
<polygon fill="black" stroke="black" points="83.4437,-75.5001 93.4437,-72 83.4436,-68.5001 83.4437,-75.5001"/>
</g>
<!-- is -->
<g id="node3" class="node"><title>is</title>
<ellipse fill="none" stroke="black" cx="214.095" cy="-45" rx="27" ry="18"/>
<text text-anchor="middle" x="214.095" y="-41.3" font-family="Times New Roman,serif" font-size="14.00">is</text>
</g>
<!-- pen&#45;&gt;is -->
<g id="edge2" class="edge"><title>pen&#45;&gt;is</title>
<path fill="none" stroke="black" d="M145.6,-64.9061C155.903,-61.8676 168.116,-58.2656 179.302,-54.9664"/>
<polygon fill="black" stroke="black" points="180.601,-58.2325 189.202,-52.0466 178.621,-51.5184 180.601,-58.2325"/>
</g>
<!-- mightier -->
<g id="node4" class="node"><title>mightier</title>
<ellipse fill="none" stroke="black" cx="316.741" cy="-72" rx="39.7935" ry="18"/>
<text text-anchor="middle" x="316.741" y="-68.3" font-family="Times New Roman,serif" font-size="14.00">mightier</text>
</g>
<!-- is&#45;&gt;mightier -->
<g id="edge3" class="edge"><title>is&#45;&gt;mightier</title>
<path fill="none" stroke="black" d="M239.458,-51.5359C249.357,-54.1916 261.102,-57.3423 272.372,-60.3657"/>
<polygon fill="black" stroke="black" points="271.531,-63.7636 282.096,-62.9742 273.344,-57.0026 271.531,-63.7636"/>
</g>
<!-- stranger -->
<g id="node9" class="node"><title>stranger</title>
<ellipse fill="none" stroke="black" cx="316.741" cy="-18" rx="39.7935" ry="18"/>
<text text-anchor="middle" x="316.741" y="-14.3" font-family="Times New Roman,serif" font-size="14.00">stranger</text>
</g>
<!-- is&#45;&gt;stranger -->
<g id="edge8" class="edge"><title>is&#45;&gt;stranger</title>
<path fill="none" stroke="black" d="M239.458,-38.4641C249.357,-35.8084 261.102,-32.6577 272.372,-29.6343"/>
<polygon fill="black" stroke="black" points="273.344,-32.9974 282.096,-27.0258 271.531,-26.2364 273.344,-32.9974"/>
</g>
<!-- than -->
<g id="node5" class="node"><title>than</title>
<ellipse fill="none" stroke="black" cx="419.388" cy="-45" rx="27" ry="18"/>
<text text-anchor="middle" x="419.388" y="-41.3" font-family="Times New Roman,serif" font-size="14.00">than</text>
</g>
<!-- mightier&#45;&gt;than -->
<g id="edge4" class="edge"><title>mightier&#45;&gt;than</title>
<path fill="none" stroke="black" d="M351.255,-63.0094C361.829,-60.1728 373.521,-57.0362 384.145,-54.1862"/>
<polygon fill="black" stroke="black" points="385.18,-57.5323 393.932,-51.5607 383.366,-50.7714 385.18,-57.5323"/>
</g>
<!-- the -->
<g id="node6" class="node"><title>the</title>
<ellipse fill="none" stroke="black" cx="516.185" cy="-72" rx="27" ry="18"/>
<text text-anchor="middle" x="516.185" y="-68.3" font-family="Times New Roman,serif" font-size="14.00">the</text>
</g>
<!-- than&#45;&gt;the -->
<g id="edge5" class="edge"><title>than&#45;&gt;the</title>
<path fill="none" stroke="black" d="M444.8,-51.9532C455.943,-55.127 469.323,-58.9377 481.411,-62.3805"/>
<polygon fill="black" stroke="black" points="480.607,-65.7907 491.183,-65.1639 482.524,-59.0584 480.607,-65.7907"/>
</g>
<!-- fiction -->
<g id="node10" class="node"><title>fiction</title>
<ellipse fill="none" stroke="black" cx="516.185" cy="-18" rx="33.5952" ry="18"/>
<text text-anchor="middle" x="516.185" y="-14.3" font-family="Times New Roman,serif" font-size="14.00">fiction</text>
</g>
<!-- than&#45;&gt;fiction -->
<g id="edge10" class="edge"><title>than&#45;&gt;fiction</title>
<path fill="none" stroke="black" d="M444.8,-38.0468C454.362,-35.3235 465.57,-32.1311 476.196,-29.1047"/>
<polygon fill="black" stroke="black" points="477.474,-32.3801 486.132,-26.2746 475.556,-25.6478 477.474,-32.3801"/>
</g>
<!-- sword -->
<g id="node7" class="node"><title>sword</title>
<ellipse fill="none" stroke="black" cx="619.779" cy="-72" rx="33.5952" ry="18"/>
<text text-anchor="middle" x="619.779" y="-68.3" font-family="Times New Roman,serif" font-size="14.00">sword</text>
</g>
<!-- the&#45;&gt;sword -->
<g id="edge6" class="edge"><title>the&#45;&gt;sword</title>
<path fill="none" stroke="black" d="M543.348,-72C553.149,-72 564.566,-72 575.506,-72"/>
<polygon fill="black" stroke="black" points="575.781,-75.5001 585.781,-72 575.781,-68.5001 575.781,-75.5001"/>
</g>
<!-- Truth -->
<g id="node8" class="node"><title>Truth</title>
<ellipse fill="none" stroke="black" cx="120.547" cy="-18" rx="30.5947" ry="18"/>
<text text-anchor="middle" x="120.547" y="-14.3" font-family="Times New Roman,serif" font-size="14.00">Truth</text>
</g>
<!-- Truth&#45;&gt;is -->
<g id="edge7" class="edge"><title>Truth&#45;&gt;is</title>
<path fill="none" stroke="black" d="M148.519,-25.9549C158.171,-28.8015 169.173,-32.0462 179.327,-35.0409"/>
<polygon fill="black" stroke="black" points="178.535,-38.4563 189.116,-37.9281 180.515,-31.7422 178.535,-38.4563"/>
</g>
<!-- stranger&#45;&gt;than -->
<g id="edge9" class="edge"><title>stranger&#45;&gt;than</title>
<path fill="none" stroke="black" d="M351.255,-26.9906C361.829,-29.8272 373.521,-32.9638 384.145,-35.8138"/>
<polygon fill="black" stroke="black" points="383.366,-39.2286 393.932,-38.4393 385.18,-32.4677 383.366,-39.2286"/>
</g>
</g>
</svg>
